<svg width="64" height="64" viewBox="0 0 64 64" fill="none" xmlns="http://www.w3.org/2000/svg">
<path d="M32 64C49.6731 64 64 49.6731 64 32C64 14.3269 49.6731 0 32 0C14.3269 0 0 14.3269 0 32C0 49.6731 14.3269 64 32 64Z" fill="#7D2AE7"/>
<path d="M32 64C49.6731 64 64 49.6731 64 32C64 14.3269 49.6731 0 32 0C14.3269 0 0 14.3269 0 32C0 49.6731 14.3269 64 32 64Z" fill="url(#paint0_radial_4_57)"/>
<path d="M32 64C49.6731 64 64 49.6731 64 32C64 14.3269 49.6731 0 32 0C14.3269 0 0 14.3269 0 32C0 49.6731 14.3269 64 32 64Z" fill="url(#paint1_radial_4_57)"/>
<path d="M32 64C49.6731 64 64 49.6731 64 32C64 14.3269 49.6731 0 32 0C14.3269 0 0 14.3269 0 32C0 49.6731 14.3269 64 32 64Z" fill="url(#paint2_radial_4_57)"/>
<path d="M32 64C49.6731 64 64 49.6731 64 32C64 14.3269 49.6731 0 32 0C14.3269 0 0 14.3269 0 32C0 49.6731 14.3269 64 32 64Z" fill="url(#paint3_radial_4_57)"/>
<path d="M57.2494 33.3889C57.1641 33.3889 57.0883 33.4461 57.0505 33.5597C56.5354 35.0258 55.8402 35.9008 55.2683 35.9008C54.9397 35.9008 54.807 35.5345 54.807 34.9593C54.807 33.525 55.6697 30.4791 56.0992 29.0889C56.15 28.9456 56.1788 28.7954 56.1848 28.6434C56.1848 28.239 55.9635 28.0399 55.417 28.0399C54.8702 28.0399 54.191 28.2737 53.5779 29.3543C53.363 28.4001 52.7186 27.983 51.8181 27.983C50.7786 27.983 49.7738 28.6529 48.9459 29.7366C48.1183 30.8203 47.1483 31.1805 46.4152 31.0036C46.9427 29.7177 47.1356 28.754 47.1356 28.0399C47.1356 26.9182 46.5827 26.2421 45.6886 26.2421C44.3265 26.2421 43.543 27.5407 43.543 28.9056C43.543 29.9609 44.0203 31.0478 45.0756 31.5755C44.1938 33.5691 42.9049 35.3734 42.4152 35.3734C41.7832 35.3734 41.5966 32.2832 41.6347 30.0715C41.6535 28.8045 41.7611 28.7382 41.7611 28.3527C41.7611 28.1347 41.6157 27.983 41.0438 27.983C39.7074 27.983 39.2903 29.1173 39.2301 30.4191C39.2071 30.9126 39.1299 31.4022 38.9995 31.8788C38.4373 33.8756 37.2871 35.3891 36.5351 35.3891C36.1844 35.3891 36.0928 35.0385 36.0928 34.5836C36.0928 33.149 36.8954 31.3511 36.8954 29.8219C36.8954 28.6939 36.4024 27.983 35.4701 27.983C34.3771 27.983 32.9268 29.2879 31.5555 31.7271C32.0074 29.8598 32.1906 28.0494 30.8573 28.0494C30.5671 28.0538 30.2822 28.1275 30.0263 28.2642C29.843 28.359 29.7451 28.5296 29.7577 28.7192C29.8841 30.7129 28.1526 35.8093 26.5096 35.8093C26.2095 35.8093 26.0673 35.487 26.0673 34.9626C26.0673 33.528 26.9235 30.4886 27.3533 29.0952C27.4056 28.9436 27.4344 28.7848 27.4386 28.6244C27.4386 28.2453 27.2047 28.0494 26.6708 28.0494C26.0831 28.0494 25.448 28.2737 24.8319 29.3543C24.617 28.4001 23.9725 27.983 23.0752 27.983C21.5996 27.983 19.9471 29.5439 19.2236 31.5818C18.2536 34.2991 16.2978 36.9217 13.6658 36.9217C11.2772 36.9217 10.0165 34.9342 10.0165 31.7967C10.0165 27.2595 13.3467 23.5564 15.8144 23.5564C16.9961 23.5564 17.5585 24.3084 17.5585 25.4617C17.5585 26.8582 16.7812 27.5059 16.7812 28.0367C16.7812 28.1979 16.9139 28.359 17.1825 28.359C18.2567 28.359 19.5174 27.0984 19.5174 25.3795C19.5174 23.6607 18.124 22.4 15.6532 22.4C11.5742 22.4 7.46667 26.5075 7.46667 31.7682C7.46667 35.9547 9.53306 38.4793 13.1034 38.4793C15.5395 38.4793 17.669 36.5867 18.8191 34.3716C18.9487 36.2074 19.7797 37.1616 21.0467 37.1616C22.1746 37.1616 23.0878 36.4918 23.786 35.3102C24.0546 36.5456 24.7655 37.1523 25.6913 37.1523C26.7529 37.1523 27.6376 36.4791 28.4812 35.231C28.4686 36.2107 28.6929 37.1332 29.5428 37.1332C29.9441 37.1332 30.4244 37.0417 30.5097 36.691C31.4007 32.991 33.6157 29.9704 34.2919 29.9704C34.4908 29.9704 34.5446 30.16 34.5446 30.3906C34.5446 31.3954 33.8366 33.4555 33.8366 34.7697C33.8366 36.1947 34.4403 37.1332 35.6884 37.1332C37.0722 37.1332 38.4781 35.4396 39.4166 32.9625C39.7105 35.2755 40.3455 37.1426 41.3346 37.1426C42.5539 37.1426 44.7186 34.5802 46.0295 31.863C46.5416 31.9294 47.3157 31.9136 48.0551 31.3891C47.7422 32.1884 47.5557 33.0637 47.5557 33.9358C47.5557 36.457 48.7563 37.1616 49.7929 37.1616C50.9206 37.1616 51.8338 36.4918 52.5321 35.3102C52.7627 36.3748 53.3503 37.1489 54.4343 37.1489C56.1276 37.1489 57.6 35.4175 57.6 33.9956C57.6 33.6199 57.4389 33.3889 57.2494 33.3889ZM22.083 35.7682C21.3974 35.7682 21.1288 35.0763 21.1288 34.0494C21.1288 32.2674 22.3484 29.2848 23.6407 29.2848C24.2031 29.2848 24.418 29.9515 24.418 30.7635C24.418 32.5739 23.2584 35.7682 22.083 35.7682ZM45.5211 30.4412C45.1133 29.9546 44.9649 29.2911 44.9649 28.7034C44.9649 27.9767 45.2303 27.3637 45.5495 27.3637C45.8684 27.3637 45.9633 27.6765 45.9633 28.1126C45.9633 28.8393 45.7043 29.9072 45.5211 30.4412ZM50.826 35.7682C50.1435 35.7682 49.8748 34.9753 49.8748 34.0494C49.8748 32.3275 51.0944 29.2848 52.3964 29.2848C52.9586 29.2848 53.1608 29.942 53.1608 30.7635C53.1608 32.5739 52.0203 35.7682 50.826 35.7682Z" fill="white"/>
<defs>
<radialGradient id="paint0_radial_4_57" cx="0" cy="0" r="1" gradientUnits="userSpaceOnUse" gradientTransform="translate(12.3621 56.7242) rotate(-49.4156) scale(49.4986)">
<stop stop-color="#6420FF"/>
<stop offset="1" stop-color="#6420FF" stop-opacity="0"/>
</radialGradient>
<radialGradient id="paint1_radial_4_57" cx="0" cy="0" r="1" gradientUnits="userSpaceOnUse" gradientTransform="translate(16.9432 7.27579) rotate(54.7035) scale(55.8188)">
<stop stop-color="#00C4CC"/>
<stop offset="1" stop-color="#00C4CC" stop-opacity="0"/>
</radialGradient>
<radialGradient id="paint2_radial_4_57" cx="0" cy="0" r="1" gradientUnits="userSpaceOnUse" gradientTransform="translate(12.3621 56.7242) rotate(-45.1954) scale(48.8994 22.4895)">
<stop stop-color="#6420FF"/>
<stop offset="1" stop-color="#6420FF" stop-opacity="0"/>
</radialGradient>
<radialGradient id="paint3_radial_4_57" cx="0" cy="0" r="1" gradientUnits="userSpaceOnUse" gradientTransform="translate(26.1726 8.62316) rotate(66.5198) scale(50.3869 84.4093)">
<stop stop-color="#00C4CC" stop-opacity="0.725916"/>
<stop offset="0.0001" stop-color="#00C4CC"/>
<stop offset="1" stop-color="#00C4CC" stop-opacity="0"/>
</radialGradient>
</defs>
</svg>
