<?xml version="1.0" encoding="UTF-8"?><svg id="_レイヤー_1" xmlns="http://www.w3.org/2000/svg" xmlns:xlink="http://www.w3.org/1999/xlink" viewBox="0 0 230 230"><defs><style>.cls-1{fill:none;}.cls-2{fill:#222;fill-rule:evenodd;}.cls-3{clip-path:url(#clippath);}</style><clipPath id="clippath"><rect class="cls-1" width="230" height="230"/></clipPath></defs><g class="cls-3"><path class="cls-2" d="M170.02,95.61c-.66-2.39-2.03-4.31-4.12-5.78-2.62-1.86-6.02-2.78-10.21-2.78-2.95,0-5.48.44-7.59,1.33-2.11.89-3.72,2.1-4.84,3.62-1.12,1.52-1.69,3.27-1.72,5.22,0,1.63.37,3.04,1.11,4.23.76,1.19,1.79,2.21,3.09,3.05,1.3.81,2.73,1.5,4.31,2.06,1.58.56,3.16,1.03,4.76,1.41l7.32,1.83c2.95.69,5.78,1.61,8.5,2.78,2.74,1.17,5.2,2.64,7.36,4.42,2.18,1.78,3.91,3.93,5.18,6.44,1.27,2.52,1.91,5.46,1.91,8.84,0,4.57-1.17,8.6-3.51,12.08-2.34,3.46-5.72,6.16-10.14,8.12-4.4,1.93-9.72,2.9-15.97,2.9s-11.35-.94-15.82-2.82c-4.45-1.88-7.93-4.62-10.44-8.23-2.49-3.61-3.84-8-4.04-13.19h13.91c.2,2.72,1.04,4.98,2.52,6.78,1.47,1.8,3.39,3.15,5.76,4.04,2.39.89,5.06,1.33,8,1.33s5.77-.46,8.08-1.37c2.34-.94,4.17-2.24,5.49-3.89,1.32-1.68,1.99-3.63,2.02-5.87-.03-2.03-.62-3.71-1.79-5.03-1.17-1.35-2.81-2.46-4.92-3.35-2.08-.91-4.52-1.73-7.32-2.44l-8.88-2.29c-6.43-1.65-11.51-4.15-15.25-7.51-3.71-3.38-5.57-7.86-5.57-13.45,0-4.6,1.25-8.63,3.74-12.08,2.52-3.46,5.93-6.14,10.25-8.04,4.32-1.93,9.21-2.9,14.67-2.9s10.39.97,14.56,2.9c4.19,1.91,7.48,4.56,9.87,7.97,2.02,2.86,3.21,6.08,3.58,9.67h-13.86Z"/><path class="cls-2" d="M125.15,84.89l-70.13,70.13-10.08-10.08,70.13-70.13,10.08,10.08Z"/></g></svg>